Coordinates
version=1
nRows=11
nColumns=40
inDegrees=yes

Units are S.I. units (second, meters, Newtons, ...)
Angles are in degrees.

endheader
time	pelvis_tilt	pelvis_list	pelvis_rotation	pelvis_tx	pelvis_ty	pelvis_tz	hip_flexion_r	hip_adduction_r	hip_rotation_r	knee_angle_r	knee_angle_r_beta	ankle_angle_r	subtalar_angle_r	mtp_angle_r	hip_flexion_l	hip_adduction_l	hip_rotation_l	knee_angle_l	knee_angle_l_beta	ankle_angle_l	subtalar_angle_l	mtp_angle_l	lumbar_extension	lumbar_bending	lumbar_rotation	arm_flex_r	arm_add_r	arm_rot_r	elbow_flex_r	pro_sup_r	wrist_flex_r	wrist_dev_r	arm_flex_l	arm_add_l	arm_rot_l	elbow_flex_l	pro_sup_l	wrist_flex_l	wrist_dev_l
     17.27000000	     -3.39594013	     -5.50953673	      4.72319697	      0.85280926	      0.92058866	      0.46795875	     -3.32272695	      5.72560351	    -18.92095394	      8.37568759	      8.37568759	     16.82085911	      7.24867592	     -4.01699488	     31.36701284	     -7.34087042	     -3.15729064	     20.05790270	     20.05790270	      2.91407054	    -10.18889682	      9.26210439	     -7.14513682	      7.92600294	      4.70394057	     45.95824667	    -17.42534985	     -9.53882697	     82.49995139	     44.91198286	      0.00000000	      0.00000000	    -13.78146120	     -6.34520044	      6.82586883	     24.52067819	     44.30609450	      0.00000000	      0.00000000
     17.28200000	     -3.44301698	     -5.47469037	      4.49138373	      0.85361594	      0.91923443	      0.46663007	     -3.73314083	      5.54788583	    -18.70912023	      8.63483629	      8.63483629	     17.33216017	      7.30044681	     -3.97067030	     31.11089859	     -7.25579334	     -2.88102079	     21.07323483	     21.07323483	      2.65907369	    -11.05196712	      9.09684157	     -6.97532243	      7.83062018	      4.73717548	     45.47859586	    -17.39379103	     -9.61653365	     82.58785912	     44.91199420	      0.00000000	      0.00000000	    -13.89180676	     -6.36944864	      6.82008899	     24.65316867	     44.30893771	      0.00000000	      0.00000000
     17.29400000	     -3.62013498	     -5.41669555	      4.25954732	      0.85430979	      0.91779854	      0.46517655	     -3.76411544	      5.25027242	    -18.47768263	      9.39813258	      9.39813258	     18.42905761	      7.23924459	     -2.51898494	     30.87879454	     -6.97304026	     -2.04543601	     21.76070849	     21.76070849	      1.84942290	    -12.87716249	      8.24834116	     -6.70903639	      7.70206192	      5.11250333	     44.48379226	    -17.64154519	    -10.32301071	     83.56836020	     44.92021853	      0.00000000	      0.00000000	    -13.96896034	     -6.54226167	      6.85944484	     25.54602090	     44.34305882	      0.00000000	      0.00000000
     17.30600000	     -3.64247309	     -5.28026226	      3.98424511	      0.85518553	      0.91680765	      0.46378657	     -4.23302243	      4.96436639	    -18.16918180	      9.59100650	      9.59100650	     18.79979771	      7.24475813	     -2.55928434	     30.55655949	     -6.83052315	     -1.96520948	     22.61016477	     22.61016477	      1.94348223	    -13.26999152	      8.02432929	     -6.61066094	      7.44724337	      5.01947453	     43.77148817	    -17.47044430	    -10.26205117	     83.38921518	     44.92232549	      0.00000000	      0.00000000	    -13.85233760	     -6.54123123	      6.87211430	     25.58201595	     44.34626126	      0.00000000	      0.00000000
     17.31800000	     -3.68031034	     -5.13422195	      3.72639735	      0.85597748	      0.91594564	      0.46221654	     -4.60644176	      4.63373849	    -17.85568680	      9.90313745	      9.90313745	     19.12513748	      7.13994496	     -2.58568374	     30.31643580	     -6.63939442	     -1.80370588	     23.47126320	     23.47126320	      2.20363472	    -13.75958610	      7.72843028	     -6.53448862	      7.22979477	      4.89976256	     42.95112910	    -17.30882751	    -10.21097968	     83.15992269	     44.92583594	      0.00000000	      0.00000000	    -13.62513852	     -6.59088281	      6.86967809	     25.65371957	     44.35362065	      0.00000000	      0.00000000
     17.33000000	     -3.92011033	     -5.05478955	      3.46904081	      0.85639215	      0.91490430	      0.46060524	     -4.32571591	      4.26386641	    -17.30658048	     11.00995634	     11.00995634	     19.62559800	      6.26480100	     -2.33849340	     30.48934895	     -6.46123167	     -1.46534514	     24.49802898	     24.49802898	      2.31077144	    -14.66894008	      7.27851489	     -6.23273895	      7.06208004	      5.06747910	     41.92495106	    -17.47630708	    -10.40708000	     82.81749542	     44.94553923	      0.00000000	      0.00000000	    -13.23108561	     -6.70012753	      6.84229279	     25.75131758	     44.38121925	      0.00000000	      0.00000000
     17.34200000	     -3.89977101	     -4.84865916	      3.24170429	      0.85707598	      0.91474495	      0.45886845	     -4.64839800	      3.84135135	    -16.96919464	     11.49726945	     11.49726945	     19.79894812	      5.98149746	     -2.27710592	     30.17595941	     -6.20991652	     -1.40098258	     25.16814100	     25.16814100	      2.75969782	    -15.14486218	      6.95378038	     -6.28824505	      6.75053598	      4.88841066	     40.75495594	    -17.23298094	    -10.32937312	     82.48366979	     44.95075113	      0.00000000	      0.00000000	    -12.81053353	     -6.80402873	      6.82892056	     25.83026696	     44.39609195	      0.00000000	      0.00000000
     17.35400000	     -4.09840140	     -4.64077669	      2.98935828	      0.85735030	      0.91448860	      0.45705047	     -4.24446617	      3.28554241	    -16.32617348	     12.87623104	     12.87623104	     20.13774319	      4.95814722	     -2.11224127	     30.13008763	     -5.93323732	     -1.31802156	     25.79189835	     25.79189835	      3.17050548	    -15.68629832	      6.62160872	     -6.10098037	      6.42518357	      5.03460326	     39.44123211	    -17.37269984	    -10.44481880	     81.95402530	     44.97265465	      0.00000000	      0.00000000	    -12.07699163	     -6.89663235	      6.79127430	     25.83627752	     44.43321912	      0.00000000	      0.00000000
     17.36600000	     -4.00685500	     -4.52091616	      2.85727136	      0.85794503	      0.91505326	      0.45503449	     -4.52580750	      2.91680724	    -16.09161067	     13.52780710	     13.52780710	     20.10300721	      4.69265538	     -2.11851668	     29.70457895	     -5.73615210	     -1.24821587	     26.27348057	     26.27348057	      3.78780637	    -16.02301974	      6.32380826	     -6.22517530	      6.26885438	      4.73780438	     38.06774056	    -17.02194517	    -10.28593935	     81.51197331	     44.97711361	      0.00000000	      0.00000000	    -11.41076872	     -6.96728861	      6.78183753	     25.97622051	     44.45025339	      0.00000000	      0.00000000
     17.37800000	     -4.21905659	     -4.25278688	      2.58988611	      0.85803006	      0.91533632	      0.45306535	     -3.73569816	      2.18024167	    -15.52538063	     15.55940772	     15.55940772	     20.23711931	      3.53029399	     -2.36683729	     29.53117863	     -5.43792294	     -1.45544280	     26.60569211	     26.60569211	      4.40271908	    -16.28407447	      6.13217999	     -6.06954065	      5.86884827	      4.91683190	     36.53327573	    -17.25091445	    -10.27078769	     80.65269536	     45.00377952	      0.00000000	      0.00000000	    -10.45127830	     -7.11145379	      6.73360950	     25.90276776	     44.49200937	      0.00000000	      0.00000000
     17.39000000	     -4.27785147	     -4.07949482	      2.40627420	      0.85821547	      0.91614563	      0.45101285	     -3.20604718	      1.58447774	    -15.09703946	     17.36858488	     17.36858488	     20.08445173	      2.63466629	     -2.73599701	     29.12837167	     -5.21776323	     -1.62348502	     26.80472576	     26.80472576	      5.06632033	    -16.41494331	      5.99533966	     -6.08031049	      5.60289209	      4.87833953	     34.91159817	    -17.22881182	    -10.12989699	     79.82049674	     45.02428543	      0.00000000	      0.00000000	     -9.44717416	     -7.22993407	      6.70166186	     25.81989222	     44.53089936	      0.00000000	      0.00000000
